<svg width="81" height="40" viewBox="0 0 81 40" fill="none" xmlns="http://www.w3.org/2000/svg">
<path d="M13.2379 26.4668L13.2379 19.8693L19.8728 19.8693L19.8728 24.1269C19.8728 24.4821 19.6726 24.8047 19.3577 24.9694C17.5277 25.9262 15.4462 26.4668 13.2379 26.4668Z" fill="#14C585"/>
<path d="M6.60724 24.1268L6.60724 19.8685L13.2422 19.8685L13.2422 26.4659C11.0343 26.4659 8.9524 25.9249 7.12238 24.969C6.80748 24.8042 6.60684 24.4817 6.60684 24.1264L6.60724 24.1268Z" fill="#A1E8CE"/>
<path d="M6.60724 13.2339L6.60724 6.59897L13.2422 6.59897L13.2422 9.71076C13.2422 9.88073 13.1046 10.0184 12.9346 10.0184L11.2798 10.0184C10.5874 10.0184 10.0263 10.5795 10.0263 11.2719L10.0263 12.9267C10.0263 13.0967 9.8886 13.2343 9.71864 13.2343L6.60684 13.2343L6.60724 13.2339Z" fill="#A4B8E8"/>
<path d="M6.60684 6.59863L6.60684 2.33949C6.60684 1.98423 6.80708 1.66126 7.12238 1.49695C8.95199 0.540966 11.0339 -4.09848e-06 13.2422 -4.29153e-06L13.2422 6.59823L6.60724 6.59823L6.60684 6.59863Z" fill="#1C4EC5"/>
<path d="M13.2379 6.59863L13.2379 0.000399216C15.4462 0.000399023 17.5277 0.541371 19.3577 1.49776C19.6726 1.66247 19.8728 1.98504 19.8728 2.3403L19.8728 6.59863L13.2379 6.59863Z" fill="#A4B8E8"/>
<path d="M-0.000227555 13.2334L6.59801 13.2334L6.59801 19.8684L2.33967 19.8684C1.98441 19.8684 1.66185 19.6681 1.49713 19.3532C0.540339 17.5232 -0.000227361 15.4417 -0.000227555 13.2334Z" fill="#A4B8E8"/>
<path d="M-0.000629902 13.2335C-0.000630095 11.0256 0.54034 8.94367 1.49632 7.11365C1.66104 6.79876 1.9836 6.59812 2.33887 6.59812L6.59801 6.59811L6.59801 13.2331L-0.000227928 13.2331L-0.000629902 13.2335Z" fill="#1C4EC5"/>
<path d="M13.2375 19.8684L13.2375 16.7566C13.2375 16.5866 13.3751 16.449 13.5451 16.449L15.1991 16.449C15.8919 16.449 16.4534 15.8874 16.4534 15.1946L16.4534 13.5406C16.4534 13.3707 16.5911 13.233 16.761 13.233L19.8728 13.233L19.8728 19.868L13.2379 19.868L13.2375 19.8684Z" fill="#A1E8CE"/>
<path d="M19.8789 19.8684L19.8789 13.2334L26.4763 13.2334C26.4763 15.4417 25.9353 17.5232 24.979 19.3532C24.8142 19.6681 24.4917 19.8684 24.1364 19.8684L19.8789 19.8684Z" fill="#14C585"/>
<path d="M19.8785 13.2339L19.8785 6.59897L24.1368 6.59897C24.4921 6.59897 24.8151 6.79921 24.9794 7.11451C25.9353 8.94412 26.4763 11.0261 26.4763 13.2343L19.8789 13.2343L19.8785 13.2339Z" fill="#A1E8CE"/>
<path d="M14.5587 15.3925L11.9257 15.3925C11.461 15.3925 11.0839 15.0155 11.0839 14.5508L11.0839 11.9178C11.0839 11.4531 11.461 11.0761 11.9257 11.0761L14.5587 11.0761C15.0233 11.0761 15.4004 11.4531 15.4004 11.9178L15.4004 14.5508C15.4004 15.0155 15.0233 15.3925 14.5587 15.3925Z" fill="#061027"/>
<path d="M32.0414 19.96V10.5208H33.0609V11.965C33.407 11.4427 33.8569 11.0274 34.4107 10.719C34.9644 10.4107 35.5748 10.2565 36.2419 10.2565C36.9718 10.2565 37.6357 10.439 38.2335 10.804C38.8376 11.1627 39.3065 11.6409 39.64 12.2387C39.9735 11.6409 40.4392 11.1627 41.037 10.804C41.6348 10.439 42.2987 10.2565 43.0286 10.2565C43.746 10.2565 44.4005 10.4327 44.992 10.7851C45.5835 11.1312 46.0523 11.6 46.3984 12.1915C46.7508 12.7831 46.927 13.4375 46.927 14.1549V19.96H45.9076V14.3437C45.9076 13.7962 45.7755 13.2928 45.5112 12.8334C45.2469 12.3677 44.8913 11.9933 44.4445 11.7101C43.9977 11.427 43.5006 11.2854 42.9531 11.2854C42.412 11.2854 41.9148 11.4175 41.4617 11.6818C41.015 11.9398 40.6594 12.2985 40.3951 12.7579C40.1308 13.2173 39.9987 13.7459 39.9987 14.3437V19.96H38.9792V14.3437C38.9792 13.7459 38.8439 13.2173 38.5733 12.7579C38.3091 12.2985 37.9535 11.9398 37.5067 11.6818C37.0599 11.4175 36.5628 11.2854 36.0153 11.2854C35.4741 11.2854 34.9802 11.427 34.5334 11.7101C34.0866 11.9933 33.7279 12.3677 33.4573 12.8334C33.193 13.2928 33.0609 13.7962 33.0609 14.3437V19.96H32.0414Z" fill="#061027"/>
<path d="M48.6293 10.5208H49.6488V19.96H48.6293V10.5208ZM49.1485 8.7368C48.9723 8.7368 48.8213 8.68016 48.6954 8.56689C48.5758 8.44733 48.5161 8.29945 48.5161 8.12325C48.5161 7.94705 48.5758 7.80232 48.6954 7.68905C48.8213 7.56948 48.9723 7.5097 49.1485 7.5097C49.3184 7.5097 49.4631 7.56948 49.5827 7.68905C49.7085 7.80232 49.7715 7.94705 49.7715 8.12325C49.7715 8.29945 49.7117 8.44733 49.5921 8.56689C49.4726 8.68016 49.3247 8.7368 49.1485 8.7368Z" fill="#061027"/>
<path d="M59.3207 5.80121H60.9065V19.96H59.3207V18.3553C58.9998 18.9091 58.5687 19.3559 58.0275 19.6957C57.4863 20.0355 56.8508 20.2054 56.1208 20.2054C55.4349 20.2054 54.793 20.0764 54.1952 19.8184C53.5974 19.5604 53.0688 19.2049 52.6094 18.7518C52.1563 18.2924 51.8008 17.7638 51.5428 17.166C51.2848 16.5682 51.1558 15.9263 51.1558 15.2404C51.1558 14.5545 51.2848 13.9126 51.5428 13.3148C51.8008 12.7107 52.1563 12.1821 52.6094 11.729C53.0688 11.2696 53.5974 10.911 54.1952 10.653C54.793 10.3949 55.4349 10.2659 56.1208 10.2659C56.8508 10.2659 57.4863 10.4359 58.0275 10.7757C58.5687 11.1155 58.9998 11.5623 59.3207 12.116V5.80121ZM56.1397 18.6668C56.7627 18.6668 57.3007 18.5158 57.7538 18.2137C58.2132 17.9054 58.5656 17.4901 58.811 16.9678C59.0627 16.4455 59.1885 15.8697 59.1885 15.2404C59.1885 14.5985 59.0627 14.0196 58.811 13.5036C58.5593 12.9813 58.2037 12.5691 57.7443 12.2671C57.2913 11.9587 56.7564 11.8045 56.1397 11.8045C55.5167 11.8045 54.9503 11.9587 54.4406 12.2671C53.9372 12.5754 53.5345 12.9907 53.2324 13.513C52.9304 14.029 52.7793 14.6048 52.7793 15.2404C52.7793 15.876 52.9335 16.4549 53.2419 16.9772C53.5502 17.4932 53.9592 17.9054 54.4689 18.2137C54.9787 18.5158 55.5356 18.6668 56.1397 18.6668Z" fill="#061027"/>
<path d="M67.0431 20.2054C66.1747 20.2054 65.3818 19.982 64.6645 19.5352C63.9534 19.0884 63.3839 18.4906 62.956 17.7418C62.5343 16.9867 62.3235 16.1529 62.3235 15.2404C62.3235 14.5482 62.4462 13.9032 62.6917 13.3054C62.9371 12.7013 63.2738 12.1727 63.7017 11.7196C64.1359 11.2602 64.6393 10.9015 65.2119 10.6435C65.7846 10.3855 66.395 10.2565 67.0431 10.2565C67.9115 10.2565 68.7013 10.4799 69.4124 10.9267C70.1297 11.3735 70.6992 11.9744 71.1209 12.7296C71.5488 13.4847 71.7627 14.3217 71.7627 15.2404C71.7627 15.9263 71.64 16.5682 71.3946 17.166C71.1492 17.7638 70.8094 18.2924 70.3752 18.7518C69.9473 19.2049 69.447 19.5604 68.8743 19.8184C68.308 20.0764 67.6976 20.2054 67.0431 20.2054ZM67.0431 18.6196C67.6347 18.6196 68.1664 18.4655 68.6384 18.1571C69.1166 17.8425 69.491 17.4303 69.7616 16.9206C70.0385 16.4046 70.1769 15.8445 70.1769 15.2404C70.1769 14.6237 70.0354 14.0574 69.7522 13.5413C69.4753 13.0253 69.1009 12.6132 68.6289 12.3048C68.157 11.9965 67.6284 11.8423 67.0431 11.8423C66.4516 11.8423 65.9199 11.9996 65.4479 12.3143C64.9759 12.6226 64.6015 13.0348 64.3246 13.5508C64.0478 14.0668 63.9093 14.63 63.9093 15.2404C63.9093 15.8697 64.0509 16.4423 64.3341 16.9583C64.6173 17.4681 64.998 17.8739 65.4762 18.176C65.9545 18.4718 66.4768 18.6196 67.0431 18.6196Z" fill="#061027"/>
<path d="M79.5841 17.468L81 18.2326C80.5721 18.8304 80.0278 19.3087 79.367 19.6674C78.7126 20.0261 78.0015 20.2054 77.2338 20.2054C76.3654 20.2054 75.5725 19.982 74.8551 19.5352C74.144 19.0884 73.5745 18.4906 73.1466 17.7418C72.725 16.9867 72.5142 16.1529 72.5142 15.2404C72.5142 14.5482 72.6369 13.9032 72.8823 13.3054C73.1277 12.7013 73.4644 12.1727 73.8923 11.7196C74.3265 11.2602 74.8299 10.9015 75.4026 10.6435C75.9752 10.3855 76.5856 10.2565 77.2338 10.2565C78.0015 10.2565 78.7126 10.4359 79.367 10.7945C80.0278 11.1532 80.5721 11.6346 81 12.2387L79.5841 13.0033C79.2821 12.632 78.9234 12.3457 78.5081 12.1443C78.0927 11.943 77.668 11.8423 77.2338 11.8423C76.6485 11.8423 76.1168 11.9996 75.6385 12.3143C75.1666 12.6226 74.7922 13.0348 74.5153 13.5508C74.2384 14.0668 74.1 14.63 74.1 15.2404C74.1 15.8508 74.2384 16.414 74.5153 16.93C74.7985 17.4397 75.176 17.8488 75.648 18.1571C76.1262 18.4655 76.6548 18.6196 77.2338 18.6196C77.6994 18.6196 78.1368 18.5127 78.5458 18.2987C78.9549 18.0847 79.301 17.8079 79.5841 17.468Z" fill="#061027"/>
<path d="M1.06532 36.4759L2.23687 33.2069H2.74586L3.91742 36.4759H3.4567L3.18904 35.708H1.7937L1.52604 36.4759H1.06532ZM1.92972 35.3131H3.05301L2.42994 33.5184H2.5528L1.92972 35.3131ZM5.96535 36.4759V33.2069H7.11935C7.33582 33.2069 7.52596 33.2479 7.68977 33.3298C7.85359 33.4117 7.98083 33.5287 8.07152 33.6808C8.16512 33.8329 8.21193 34.0114 8.21193 34.2161C8.21193 34.4209 8.16512 34.5993 8.07152 34.7514C7.98083 34.9006 7.85359 35.0176 7.68977 35.1025C7.52888 35.1844 7.33874 35.2253 7.11935 35.2253H6.39536V36.4759H5.96535ZM6.39536 34.8304H7.13252C7.26415 34.8304 7.37823 34.8056 7.47477 34.7558C7.5713 34.7061 7.64589 34.6344 7.69855 34.5408C7.7512 34.4472 7.77753 34.339 7.77753 34.2161C7.77753 34.0903 7.7512 33.9821 7.69855 33.8914C7.64589 33.7978 7.5713 33.7261 7.47477 33.6764C7.37823 33.6267 7.26415 33.6018 7.13252 33.6018H6.39536V34.8304ZM9.23224 36.4759V33.2069H10.3862C10.6027 33.2069 10.7929 33.2479 10.9567 33.3298C11.1205 33.4117 11.2477 33.5287 11.3384 33.6808C11.432 33.8329 11.4788 34.0114 11.4788 34.2161C11.4788 34.4472 11.4203 34.6432 11.3033 34.8041C11.1863 34.965 11.0283 35.0805 10.8294 35.1507L11.5885 36.4759H11.0883L10.2897 35.0586L10.5749 35.2253H9.66225V36.4759H9.23224ZM9.66225 34.8304H10.3994C10.5281 34.8304 10.6407 34.8056 10.7373 34.7558C10.8338 34.7061 10.9084 34.6344 10.9611 34.5408C11.0166 34.4472 11.0444 34.339 11.0444 34.2161C11.0444 34.0903 11.0166 33.9821 10.9611 33.8914C10.9084 33.7978 10.8338 33.7261 10.7373 33.6764C10.6407 33.6267 10.5281 33.6018 10.3994 33.6018H9.66225V34.8304ZM14.0783 36.5285C13.8473 36.5285 13.6308 36.4876 13.4289 36.4057C13.2271 36.3208 13.0501 36.2024 12.898 36.0502C12.7488 35.8981 12.6318 35.7197 12.547 35.5149C12.4622 35.3072 12.4197 35.082 12.4197 34.8392C12.4197 34.5935 12.4622 34.3682 12.547 34.1635C12.6318 33.9587 12.7488 33.7803 12.898 33.6281C13.0501 33.476 13.2256 33.359 13.4246 33.2771C13.6264 33.1952 13.8443 33.1543 14.0783 33.1543C14.3124 33.1543 14.5288 33.1967 14.7277 33.2815C14.9296 33.3634 15.1051 33.4804 15.2543 33.6325C15.4064 33.7817 15.5249 33.9587 15.6097 34.1635C15.6975 34.3682 15.7413 34.5935 15.7413 34.8392C15.7413 35.082 15.6975 35.3072 15.6097 35.5149C15.5249 35.7197 15.4064 35.8981 15.2543 36.0502C15.1051 36.2024 14.9296 36.3208 14.7277 36.4057C14.5288 36.4876 14.3124 36.5285 14.0783 36.5285ZM14.0783 36.1292C14.2597 36.1292 14.425 36.097 14.5742 36.0327C14.7234 35.9654 14.8521 35.8733 14.9603 35.7563C15.0715 35.6363 15.1563 35.4988 15.2148 35.3438C15.2762 35.1858 15.3069 35.0176 15.3069 34.8392C15.3069 34.6608 15.2762 34.494 15.2148 34.339C15.1563 34.1839 15.0715 34.0479 14.9603 33.9309C14.8521 33.811 14.7234 33.7188 14.5742 33.6545C14.425 33.5872 14.2597 33.5536 14.0783 33.5536C13.8999 33.5536 13.7361 33.5872 13.5869 33.6545C13.4377 33.7188 13.3075 33.811 13.1964 33.9309C13.0882 34.0479 13.0033 34.1839 12.9419 34.339C12.8805 34.494 12.8497 34.6608 12.8497 34.8392C12.8497 35.0176 12.8805 35.1858 12.9419 35.3438C13.0033 35.4988 13.0882 35.6363 13.1964 35.7563C13.3075 35.8733 13.4377 35.9654 13.5869 36.0327C13.7361 36.097 13.8999 36.1292 14.0783 36.1292ZM16.8073 36.4759V33.2069H17.8779C18.2085 33.2069 18.4966 33.2742 18.7423 33.4088C18.988 33.5433 19.1782 33.7335 19.3127 33.9792C19.4473 34.222 19.5146 34.5086 19.5146 34.8392C19.5146 35.1668 19.4473 35.4535 19.3127 35.6992C19.1782 35.9449 18.988 36.1365 18.7423 36.274C18.4966 36.4086 18.2085 36.4759 17.8779 36.4759H16.8073ZM17.2373 36.081H17.8823C18.1251 36.081 18.3343 36.0298 18.5098 35.9274C18.6882 35.825 18.8257 35.6817 18.9222 35.4974C19.0188 35.3102 19.067 35.0908 19.067 34.8392C19.067 34.5847 19.0173 34.3653 18.9178 34.181C18.8213 33.9967 18.6838 33.8549 18.5054 33.7554C18.3299 33.653 18.1222 33.6018 17.8823 33.6018H17.2373V36.081ZM21.6831 36.5285C21.4462 36.5285 21.2355 36.4788 21.0513 36.3793C20.8699 36.2799 20.728 36.1438 20.6256 35.9713C20.5262 35.7957 20.4764 35.5968 20.4764 35.3745V33.2069H20.9108V35.3657C20.9108 35.5149 20.943 35.648 21.0074 35.765C21.0747 35.8791 21.1653 35.9683 21.2794 36.0327C21.3964 36.097 21.531 36.1292 21.6831 36.1292C21.8352 36.1292 21.9683 36.097 22.0824 36.0327C22.1994 35.9683 22.2901 35.8791 22.3544 35.765C22.4217 35.648 22.4554 35.5149 22.4554 35.3657V33.2069H22.8898V35.3745C22.8898 35.5968 22.8386 35.7957 22.7362 35.9713C22.6367 36.1438 22.4963 36.2799 22.315 36.3793C22.1336 36.4788 21.923 36.5285 21.6831 36.5285ZM25.5403 36.5285C25.3092 36.5285 25.0956 36.4876 24.8996 36.4057C24.7066 36.3208 24.5369 36.2024 24.3907 36.0502C24.2473 35.8981 24.1362 35.7197 24.0572 35.5149C23.9782 35.3102 23.9387 35.0864 23.9387 34.8436C23.9387 34.5979 23.9782 34.3726 24.0572 34.1679C24.1362 33.9631 24.2473 33.7846 24.3907 33.6325C24.534 33.4804 24.7037 33.3634 24.8996 33.2815C25.0956 33.1967 25.3092 33.1543 25.5403 33.1543C25.7655 33.1543 25.9674 33.1937 26.1458 33.2727C26.3272 33.3517 26.4793 33.4541 26.6021 33.5799C26.7279 33.7057 26.8171 33.8402 26.8698 33.9836L26.4749 34.1635C26.3988 33.9821 26.2804 33.8358 26.1195 33.7247C25.9586 33.6106 25.7655 33.5536 25.5403 33.5536C25.3121 33.5536 25.1088 33.6077 24.9304 33.7159C24.7548 33.8241 24.6174 33.9748 24.5179 34.1679C24.4184 34.3609 24.3687 34.5862 24.3687 34.8436C24.3687 35.0981 24.4184 35.3219 24.5179 35.5149C24.6174 35.708 24.7548 35.8586 24.9304 35.9669C25.1088 36.0751 25.3121 36.1292 25.5403 36.1292C25.7655 36.1292 25.9586 36.0736 26.1195 35.9625C26.2804 35.8484 26.3988 35.7007 26.4749 35.5193L26.8698 35.6992C26.8171 35.8425 26.7279 35.9771 26.6021 36.1029C26.4793 36.2287 26.3272 36.3311 26.1458 36.41C25.9674 36.489 25.7655 36.5285 25.5403 36.5285ZM28.4639 36.4759V33.6018H27.5775V33.2069H29.7715V33.6018H28.8983V36.4759H28.4639ZM33.384 36.5285C33.1529 36.5285 32.9365 36.4876 32.7346 36.4057C32.5328 36.3208 32.3558 36.2024 32.2037 36.0502C32.0545 35.8981 31.9375 35.7197 31.8527 35.5149C31.7678 35.3072 31.7254 35.082 31.7254 34.8392C31.7254 34.5935 31.7678 34.3682 31.8527 34.1635C31.9375 33.9587 32.0545 33.7803 32.2037 33.6281C32.3558 33.476 32.5313 33.359 32.7302 33.2771C32.9321 33.1952 33.15 33.1543 33.384 33.1543C33.618 33.1543 33.8345 33.1967 34.0334 33.2815C34.2353 33.3634 34.4108 33.4804 34.56 33.6325C34.7121 33.7817 34.8306 33.9587 34.9154 34.1635C35.0031 34.3682 35.047 34.5935 35.047 34.8392C35.047 35.082 35.0031 35.3072 34.9154 35.5149C34.8306 35.7197 34.7121 35.8981 34.56 36.0502C34.4108 36.2024 34.2353 36.3208 34.0334 36.4057C33.8345 36.4876 33.618 36.5285 33.384 36.5285ZM33.384 36.1292C33.5654 36.1292 33.7307 36.097 33.8799 36.0327C34.029 35.9654 34.1578 35.8733 34.266 35.7563C34.3771 35.6363 34.462 35.4988 34.5205 35.3438C34.5819 35.1858 34.6126 35.0176 34.6126 34.8392C34.6126 34.6608 34.5819 34.494 34.5205 34.339C34.462 34.1839 34.3771 34.0479 34.266 33.9309C34.1578 33.811 34.029 33.7188 33.8799 33.6545C33.7307 33.5872 33.5654 33.5536 33.384 33.5536C33.2056 33.5536 33.0418 33.5872 32.8926 33.6545C32.7434 33.7188 32.6132 33.811 32.5021 33.9309C32.3938 34.0479 32.309 34.1839 32.2476 34.339C32.1861 34.494 32.1554 34.6608 32.1554 34.8392C32.1554 35.0176 32.1861 35.1858 32.2476 35.3438C32.309 35.4988 32.3938 35.6363 32.5021 35.7563C32.6132 35.8733 32.7434 35.9654 32.8926 36.0327C33.0418 36.097 33.2056 36.1292 33.384 36.1292ZM36.113 36.4759V33.2069H38.184V33.6018H36.543V34.6593H38.0305V35.0542H36.543V36.4759H36.113Z" fill="#384052"/>
<path fill-rule="evenodd" clip-rule="evenodd" d="M43.2943 38.5439V29.7113H51.6486V29.4668H43.1476C43.0936 29.4668 43.0498 29.5106 43.0498 29.5646V38.6906C43.0498 38.7446 43.0936 38.7884 43.1476 38.7884H51.6486V38.5439H43.2943ZM52.3715 29.8674V38.3879H52.127V29.8674H52.3715ZM47.5557 36.3319L47.189 36.7004C47.107 36.7827 47.1072 36.9158 47.1895 36.9978L47.5557 37.3636C47.6382 37.4459 47.7716 37.4459 47.854 37.3636L48.2215 36.9963C48.3038 36.9139 48.3038 36.7808 48.2215 36.6985L47.8545 36.3316C47.7721 36.249 47.638 36.2493 47.5557 36.3319ZM49.9037 33.9772L50.2704 33.6087C50.3527 33.5261 50.4867 33.5258 50.5692 33.6084L50.9362 33.9753C51.0185 34.0576 51.0185 34.1908 50.9362 34.2731L50.5687 34.6404C50.4863 34.7228 50.3528 34.7228 50.2704 34.6404L49.9042 34.2746C49.8219 34.1926 49.8217 34.0595 49.9037 33.9772ZM49.5766 35.3363L49.2082 34.9696C49.1258 34.8876 48.9927 34.8877 48.9107 34.97L48.5449 35.3363C48.4626 35.4187 48.4626 35.5521 48.5449 35.6346L48.9123 36.0021C48.9946 36.0843 49.1277 36.0843 49.21 36.0021L49.5769 35.635C49.6595 35.5526 49.6592 35.4185 49.5766 35.3363ZM45.8249 35.3388L46.1916 34.9703C46.2739 34.8877 46.4079 34.8874 46.4904 34.97L46.8574 35.3369C46.9397 35.4192 46.9397 35.5524 46.8574 35.6347L46.4899 36.002C46.4075 36.0844 46.274 36.0844 46.1916 36.002L45.8253 35.6362C45.7431 35.5542 45.7429 35.4211 45.8249 35.3388ZM44.8275 33.6087L44.4607 33.9772C44.3788 34.0595 44.3789 34.1926 44.4612 34.2746L44.8275 34.6404C44.9099 34.7228 45.0433 34.7228 45.1258 34.6404L45.4933 34.2731C45.5755 34.1908 45.5755 34.0576 45.4933 33.9753L45.1262 33.6084C45.0438 33.5258 44.9097 33.5261 44.8275 33.6087ZM48.5463 32.6148L48.9131 32.2463C48.9953 32.1637 49.1294 32.1634 49.2118 32.246L49.5789 32.6129C49.6611 32.6952 49.6611 32.8283 49.5789 32.9107L49.2114 33.278C49.1289 33.3603 48.9955 33.3603 48.9131 33.278L48.5468 32.9122C48.4645 32.8302 48.4644 32.6971 48.5463 32.6148ZM47.5557 30.8847L47.189 31.2532C47.107 31.3355 47.1072 31.4686 47.1895 31.5506L47.5557 31.9164C47.6382 31.9988 47.7716 31.9988 47.854 31.9164L48.2215 31.5491C48.3038 31.4667 48.3038 31.3336 48.2215 31.2513L47.8545 30.8844C47.7721 30.8018 47.638 30.8021 47.5557 30.8847ZM47.189 33.9772L47.5557 33.6087C47.638 33.5261 47.7721 33.5258 47.8545 33.6084L48.2215 33.9753C48.3038 34.0576 48.3038 34.1908 48.2215 34.2731L47.854 34.6404C47.7716 34.7228 47.6382 34.7228 47.5557 34.6404L47.1895 34.2746C47.1072 34.1926 47.107 34.0595 47.189 33.9772ZM46.1916 32.2463L45.8249 32.6148C45.7429 32.6971 45.7431 32.8302 45.8253 32.9122L46.1916 33.278C46.274 33.3603 46.4075 33.3603 46.4899 33.278L46.8574 32.9107C46.9397 32.8283 46.9397 32.6952 46.8574 32.6129L46.4904 32.246C46.4079 32.1634 46.2739 32.1637 46.1916 32.2463Z" fill="#384052"/>
<path fill-rule="evenodd" clip-rule="evenodd" d="M56.5622 29.8625V33.6392H57.126V32.0477C57.126 31.9147 57.1509 31.7999 57.2008 31.7035C57.254 31.607 57.3256 31.5338 57.4154 31.484C57.5085 31.4307 57.6116 31.4041 57.7247 31.4041C57.8411 31.4041 57.9442 31.4307 58.034 31.484C58.1238 31.5338 58.1936 31.607 58.2435 31.7035C58.2968 31.7966 58.3234 31.9113 58.3234 32.0477V33.6392H58.8821V31.8931C58.8821 31.6968 58.8389 31.5222 58.7524 31.3692C58.6659 31.2162 58.5462 31.0965 58.3932 31.01C58.2402 30.9235 58.0639 30.8803 57.8644 30.8803C57.6715 30.8803 57.5018 30.9252 57.3555 31.015C57.2631 31.0696 57.1866 31.1408 57.126 31.2285V29.8625H56.5622ZM54.8199 30.4462V33.6392H55.4037V30.4462H56.3765V29.9224H53.8321V30.4462H54.8199ZM60.5531 33.6991C60.2837 33.6991 60.0443 33.6375 59.8347 33.5145C59.6285 33.3881 59.4672 33.2185 59.3508 33.0056C59.2344 32.7894 59.1762 32.5483 59.1762 32.2822C59.1762 32.0095 59.2344 31.7683 59.3508 31.5588C59.4705 31.3492 59.6302 31.1846 59.8297 31.0649C60.0293 30.9418 60.2555 30.8803 60.5082 30.8803C60.7111 30.8803 60.8924 30.9152 61.052 30.985C61.2117 31.0549 61.3464 31.1513 61.4562 31.2744C61.5659 31.3941 61.6491 31.5322 61.7056 31.6885C61.7655 31.8448 61.7954 32.0111 61.7954 32.1874C61.7954 32.2306 61.7937 32.2755 61.7904 32.3221C61.7871 32.3687 61.7804 32.4119 61.7705 32.4518H59.7615C59.7679 32.5676 59.794 32.6724 59.8397 32.7661C59.9096 32.9025 60.006 33.0089 60.1291 33.0854C60.2555 33.1619 60.3985 33.2002 60.5581 33.2002C60.7211 33.2002 60.8591 33.1636 60.9722 33.0904C61.0886 33.0172 61.1801 32.9225 61.2466 32.806L61.7056 33.0305C61.6524 33.1569 61.5692 33.2717 61.4562 33.3748C61.3464 33.4746 61.2134 33.5544 61.057 33.6143C60.904 33.6708 60.7361 33.6991 60.5531 33.6991ZM59.8397 31.7883C59.8097 31.853 59.7883 31.9245 59.7756 32.0028H61.1996C61.1961 31.9206 61.1785 31.8441 61.1468 31.7733C61.0936 31.6436 61.0105 31.5422 60.8974 31.469C60.7876 31.3925 60.6579 31.3542 60.5082 31.3542C60.3586 31.3542 60.2255 31.3925 60.1091 31.469C59.9927 31.5422 59.9029 31.6486 59.8397 31.7883ZM63.8713 33.5544C64.0974 33.6509 64.3419 33.6991 64.6047 33.6991C64.8674 33.6991 65.1019 33.6542 65.3081 33.5644C65.5176 33.4746 65.6939 33.3565 65.8369 33.2102C65.98 33.0638 66.0831 32.9075 66.1463 32.7412L65.6174 32.4917C65.5376 32.6913 65.4096 32.8526 65.2333 32.9757C65.0603 33.0987 64.8508 33.1603 64.6047 33.1603C64.3585 33.1603 64.1407 33.1037 63.9511 32.9906C63.7615 32.8742 63.6135 32.7129 63.5071 32.5067C63.404 32.2972 63.3524 32.0544 63.3524 31.7783C63.3524 31.5022 63.404 31.2611 63.5071 31.0549C63.6135 30.8487 63.7615 30.6874 63.9511 30.571C64.1407 30.4545 64.3585 30.3963 64.6047 30.3963C64.8508 30.3963 65.0603 30.4595 65.2333 30.5859C65.4096 30.709 65.5376 30.8703 65.6174 31.0699L66.1463 30.8204C66.0831 30.6508 65.98 30.4945 65.8369 30.3514C65.6939 30.2051 65.5176 30.087 65.3081 29.9972C65.1019 29.9074 64.8674 29.8625 64.6047 29.8625C64.3386 29.8625 64.0941 29.9107 63.8713 30.0072C63.6484 30.1003 63.4539 30.2334 63.2876 30.4063C63.1213 30.5759 62.9915 30.7788 62.8984 31.015C62.8086 31.2478 62.7637 31.5022 62.7637 31.7783C62.7637 32.0577 62.8103 32.3138 62.9034 32.5466C62.9965 32.7794 63.1246 32.9823 63.2876 33.1553C63.4539 33.3249 63.6484 33.4579 63.8713 33.5544ZM66.4972 33.6392V29.8625H67.061V33.6392H66.4972ZM68.1093 33.5145C68.3254 33.6375 68.5633 33.6991 68.8227 33.6991C69.0821 33.6991 69.3183 33.6392 69.5311 33.5195C69.744 33.3964 69.9136 33.2284 70.04 33.0156C70.1664 32.8027 70.2296 32.5599 70.2296 32.2872C70.2296 32.0145 70.1664 31.7733 70.04 31.5638C69.9169 31.3509 69.749 31.1846 69.5361 31.0649C69.3266 30.9418 69.0888 30.8803 68.8227 30.8803C68.5599 30.8803 68.3221 30.9418 68.1093 31.0649C67.8964 31.1846 67.7268 31.3509 67.6004 31.5638C67.474 31.7733 67.4108 32.0145 67.4108 32.2872C67.4108 32.5566 67.474 32.7977 67.6004 33.0106C67.7268 33.2235 67.8964 33.3914 68.1093 33.5145ZM69.2467 33.0605C69.1237 33.137 68.9823 33.1752 68.8227 33.1752C68.6664 33.1752 68.525 33.137 68.3986 33.0605C68.2756 32.984 68.1774 32.8792 68.1043 32.7462C68.0344 32.6098 67.9995 32.4568 67.9995 32.2872C67.9995 32.1176 68.0344 31.9662 68.1043 31.8332C68.1774 31.7001 68.2756 31.5954 68.3986 31.5189C68.525 31.4424 68.6664 31.4041 68.8227 31.4041C68.9823 31.4041 69.1237 31.4424 69.2467 31.5189C69.3698 31.5954 69.4663 31.7001 69.5361 31.8332C69.6093 31.9662 69.6459 32.1176 69.6459 32.2872C69.6459 32.4568 69.6093 32.6098 69.5361 32.7462C69.4663 32.8792 69.3698 32.984 69.2467 33.0605ZM71.5433 33.6991C71.3404 33.6991 71.1625 33.6542 71.0095 33.5644C70.8565 33.4712 70.7367 33.3432 70.6503 33.1802C70.5671 33.0139 70.5255 32.8227 70.5255 32.6065V30.9401H71.0893V32.5566C71.0893 32.6797 71.1142 32.7877 71.1641 32.8809C71.214 32.974 71.2839 33.0472 71.3737 33.1004C71.4635 33.1503 71.5666 33.1752 71.683 33.1752C71.8027 33.1752 71.9075 33.1486 71.9973 33.0954C72.0871 33.0422 72.1569 32.9674 72.2068 32.8709C72.2601 32.7744 72.2867 32.6614 72.2867 32.5316V30.9401H72.8454V33.6392H72.3116V33.3059C72.249 33.4125 72.1642 33.4987 72.0572 33.5644C71.9108 33.6542 71.7395 33.6991 71.5433 33.6991ZM73.8529 33.5145C74.0591 33.6375 74.2919 33.6991 74.5514 33.6991C74.7576 33.6991 74.9472 33.6558 75.1201 33.5694C75.2563 33.5013 75.3677 33.4095 75.4544 33.294V33.6392H75.9882V29.8625H75.4294V31.2537C75.3451 31.1546 75.242 31.0734 75.1201 31.01C74.9538 30.9235 74.7626 30.8803 74.5464 30.8803C74.2903 30.8803 74.0608 30.9418 73.8579 31.0649C73.655 31.1879 73.4937 31.3559 73.374 31.5688C73.2542 31.7816 73.1944 32.0211 73.1944 32.2872C73.1944 32.5533 73.2526 32.7927 73.369 33.0056C73.4887 33.2185 73.65 33.3881 73.8529 33.5145ZM75.0253 33.0605C74.9023 33.137 74.7626 33.1752 74.6062 33.1752C74.4466 33.1752 74.3036 33.137 74.1772 33.0605C74.0541 32.984 73.9577 32.8792 73.8878 32.7462C73.818 32.6098 73.7831 32.4568 73.7831 32.2872C73.7831 32.1176 73.818 31.9662 73.8878 31.8332C73.9577 31.7001 74.0558 31.5954 74.1822 31.5189C74.3086 31.4424 74.4499 31.4041 74.6062 31.4041C74.7626 31.4041 74.9023 31.4424 75.0253 31.5189C75.1517 31.5954 75.2498 31.7001 75.3197 31.8332C75.3928 31.9662 75.4294 32.1176 75.4294 32.2872C75.4294 32.4568 75.3928 32.6098 75.3197 32.7462C75.2498 32.8792 75.1517 32.984 75.0253 33.0605ZM63.2785 38.3874V34.6107H63.8423V38.3874H63.2785ZM54.8162 34.6705V38.3874H55.4049V34.6705H54.8162ZM55.9211 35.6883V38.3874H56.4848V36.7959C56.4848 36.6628 56.5098 36.5481 56.5597 36.4516C56.6095 36.3552 56.6794 36.282 56.7692 36.2321C56.8623 36.1789 56.9671 36.1523 57.0835 36.1523C57.1999 36.1523 57.303 36.1789 57.3928 36.2321C57.4859 36.282 57.5575 36.3552 57.6073 36.4516C57.6572 36.5448 57.6822 36.6595 57.6822 36.7959V38.3874H58.241V36.6462C58.241 36.4466 58.1977 36.2704 58.1112 36.1174C58.0248 35.9644 57.905 35.8446 57.752 35.7582C57.599 35.6717 57.4228 35.6284 57.2232 35.6284C57.0303 35.6284 56.8607 35.6733 56.7143 35.7631C56.6087 35.8255 56.5239 35.9096 56.4599 36.0153V35.6883H55.9211ZM59.8122 38.4173C59.5295 38.4173 59.31 38.3375 59.1536 38.1778C58.9973 38.0182 58.9191 37.7937 58.9191 37.5043V36.1972H58.4452V35.6883H58.52C58.6464 35.6883 58.7445 35.6517 58.8144 35.5785C58.8842 35.5054 58.9191 35.4056 58.9191 35.2792V35.0697H59.4829V35.6883H60.0966V36.1972H59.4829V37.4794C59.4829 37.5725 59.4979 37.6523 59.5278 37.7188C59.5577 37.782 59.606 37.8319 59.6725 37.8685C59.739 37.9018 59.8255 37.9184 59.9319 37.9184C59.9585 37.9184 59.9885 37.9167 60.0217 37.9134C60.055 37.9101 60.0866 37.9068 60.1165 37.9034V38.3874C60.0699 38.394 60.0184 38.4007 59.9619 38.4073C59.9053 38.414 59.8554 38.4173 59.8122 38.4173ZM60.9672 38.2626C61.1767 38.3857 61.4162 38.4472 61.6856 38.4472C61.8685 38.4472 62.0365 38.419 62.1895 38.3624C62.3458 38.3026 62.4789 38.2227 62.5886 38.1229C62.7017 38.0198 62.7848 37.9051 62.8381 37.7787L62.3791 37.5542C62.3126 37.6706 62.2211 37.7654 62.1047 37.8386C61.9916 37.9117 61.8536 37.9483 61.6906 37.9483C61.5309 37.9483 61.3879 37.9101 61.2615 37.8336C61.1385 37.7571 61.042 37.6507 60.9722 37.5143C60.9264 37.4205 60.9003 37.3158 60.8939 37.2H62.9029C62.9129 37.1601 62.9196 37.1168 62.9229 37.0703C62.9262 37.0237 62.9279 36.9788 62.9279 36.9356C62.9279 36.7593 62.8979 36.593 62.8381 36.4367C62.7815 36.2803 62.6984 36.1423 62.5886 36.0226C62.4789 35.8995 62.3442 35.8031 62.1845 35.7332C62.0249 35.6634 61.8436 35.6284 61.6407 35.6284C61.3879 35.6284 61.1618 35.69 60.9622 35.813C60.7626 35.9328 60.603 36.0974 60.4832 36.3069C60.3668 36.5165 60.3086 36.7576 60.3086 37.0304C60.3086 37.2964 60.3668 37.5376 60.4832 37.7538C60.5997 37.9666 60.761 38.1363 60.9672 38.2626ZM60.908 36.751C60.9208 36.6727 60.9422 36.6012 60.9722 36.5364C61.0354 36.3967 61.1252 36.2903 61.2416 36.2171C61.358 36.1406 61.491 36.1024 61.6407 36.1024C61.7904 36.1024 61.9201 36.1406 62.0298 36.2171C62.1429 36.2903 62.2261 36.3918 62.2793 36.5215C62.311 36.5922 62.3285 36.6687 62.332 36.751H60.908ZM64.3018 34.6107V38.3874H64.8656V34.6107H64.3018ZM65.3252 38.3874V35.6883H65.8889V38.3874H65.3252ZM65.3252 35.3191V34.6705H65.8889V35.3191H65.3252ZM67.1068 39.3902C67.2731 39.4534 67.4544 39.485 67.6506 39.485C67.9067 39.485 68.1329 39.4317 68.3291 39.3253C68.5254 39.2189 68.6784 39.0725 68.7881 38.8863C68.9012 38.7033 68.9578 38.4955 68.9578 38.2626V35.6883H68.4239V36.0352C68.3337 35.9207 68.2256 35.83 68.0997 35.7631C67.94 35.6733 67.7571 35.6284 67.5509 35.6284C67.2981 35.6284 67.0736 35.6866 66.8773 35.8031C66.6811 35.9195 66.5248 36.0775 66.4084 36.277C66.2953 36.4766 66.2387 36.7044 66.2387 36.9605C66.2387 37.2133 66.2953 37.4411 66.4084 37.644C66.5248 37.8469 66.6828 38.0065 66.8823 38.1229C67.0819 38.2394 67.3064 38.2976 67.5558 38.2976C67.7621 38.2976 67.9467 38.2527 68.1096 38.1629C68.2231 38.1016 68.3196 38.0209 68.399 37.9209V38.2626C68.399 38.409 68.3657 38.5337 68.2992 38.6368C68.2327 38.7433 68.1429 38.8231 68.0298 38.8763C67.9167 38.9328 67.7887 38.9611 67.6457 38.9611C67.4627 38.9611 67.3081 38.9195 67.1817 38.8364C67.0586 38.7532 66.9738 38.6485 66.9272 38.5221L66.4084 38.7366C66.4682 38.8863 66.558 39.016 66.6778 39.1257C66.7975 39.2388 66.9405 39.327 67.1068 39.3902ZM68.0198 37.6689C67.9034 37.7388 67.7704 37.7737 67.6207 37.7737C67.4677 37.7737 67.3313 37.7388 67.2116 37.6689C67.0919 37.5958 66.9971 37.4977 66.9272 37.3746C66.8607 37.2515 66.8275 37.1152 66.8275 36.9655C66.8275 36.8092 66.8607 36.6711 66.9272 36.5514C66.9971 36.4283 67.0919 36.3319 67.2116 36.262C67.3313 36.1889 67.4677 36.1523 67.6207 36.1523C67.7671 36.1523 67.8984 36.1889 68.0148 36.262C68.1312 36.3319 68.2244 36.4283 68.2942 36.5514C68.3641 36.6745 68.399 36.8125 68.399 36.9655C68.399 37.1185 68.3641 37.2565 68.2942 37.3796C68.2277 37.4993 68.1362 37.5958 68.0198 37.6689ZM70.6853 38.4472C70.4159 38.4472 70.1765 38.3857 69.9669 38.2626C69.7607 38.1363 69.5994 37.9666 69.483 37.7538C69.3666 37.5376 69.3084 37.2964 69.3084 37.0304C69.3084 36.7576 69.3666 36.5165 69.483 36.3069C69.6027 36.0974 69.7624 35.9328 69.9619 35.813C70.1615 35.69 70.3877 35.6284 70.6404 35.6284C70.8433 35.6284 71.0246 35.6634 71.1842 35.7332C71.3439 35.8031 71.4786 35.8995 71.5883 36.0226C71.6981 36.1423 71.7813 36.2803 71.8378 36.4367C71.8977 36.593 71.9276 36.7593 71.9276 36.9356C71.9276 36.9788 71.9259 37.0237 71.9226 37.0703C71.9193 37.1168 71.9126 37.1601 71.9027 37.2H69.8937C69.9001 37.3158 69.9262 37.4205 69.9719 37.5143C70.0417 37.6507 70.1382 37.7571 70.2613 37.8336C70.3877 37.9101 70.5307 37.9483 70.6903 37.9483C70.8533 37.9483 70.9913 37.9117 71.1044 37.8386C71.2208 37.7654 71.3123 37.6706 71.3788 37.5542L71.8378 37.7787C71.7846 37.9051 71.7014 38.0198 71.5883 38.1229C71.4786 38.2227 71.3455 38.3026 71.1892 38.3624C71.0362 38.419 70.8683 38.4472 70.6853 38.4472ZM69.9719 36.5364C69.9419 36.6012 69.9205 36.6727 69.9077 36.751H71.3318C71.3283 36.6687 71.3107 36.5922 71.279 36.5215C71.2258 36.3918 71.1427 36.2903 71.0296 36.2171C70.9198 36.1406 70.7901 36.1024 70.6404 36.1024C70.4908 36.1024 70.3577 36.1406 70.2413 36.2171C70.1249 36.2903 70.0351 36.3967 69.9719 36.5364ZM72.2782 35.6883V38.3874H72.842V36.7959C72.842 36.6628 72.8669 36.5481 72.9168 36.4516C72.9667 36.3552 73.0366 36.282 73.1264 36.2321C73.2195 36.1789 73.3243 36.1523 73.4407 36.1523C73.5571 36.1523 73.6602 36.1789 73.75 36.2321C73.8431 36.282 73.9146 36.3552 73.9645 36.4516C74.0144 36.5448 74.0394 36.6595 74.0394 36.7959V38.3874H74.5981V36.6462C74.5981 36.4466 74.5549 36.2704 74.4684 36.1174C74.3819 35.9644 74.2622 35.8446 74.1092 35.7582C73.9562 35.6717 73.7799 35.6284 73.5804 35.6284C73.3875 35.6284 73.2178 35.6733 73.0715 35.7631C72.9659 35.8255 72.8811 35.9096 72.817 36.0153V35.6883H72.2782ZM76.2841 38.4472C76.0147 38.4472 75.7752 38.3857 75.5657 38.2626C75.3595 38.1363 75.1948 37.9666 75.0718 37.7538C74.952 37.5409 74.8922 37.2998 74.8922 37.0304C74.8922 36.7643 74.952 36.5248 75.0718 36.3119C75.1915 36.0991 75.3561 35.9328 75.5657 35.813C75.7752 35.69 76.0147 35.6284 76.2841 35.6284C76.467 35.6284 76.6383 35.6617 76.798 35.7282C76.9576 35.7914 77.0957 35.8796 77.2121 35.9926C77.3318 36.1057 77.4199 36.2371 77.4765 36.3868L76.9826 36.6163C76.926 36.4766 76.8346 36.3652 76.7082 36.282C76.5851 36.1955 76.4438 36.1523 76.2841 36.1523C76.1311 36.1523 75.9931 36.1905 75.87 36.267C75.7503 36.3402 75.6555 36.445 75.5856 36.5813C75.5158 36.7144 75.4809 36.8657 75.4809 37.0353C75.4809 37.205 75.5158 37.358 75.5856 37.4943C75.6555 37.6274 75.7503 37.7321 75.87 37.8086C75.9931 37.8851 76.1311 37.9234 76.2841 37.9234C76.4471 37.9234 76.5884 37.8818 76.7082 37.7987C76.8312 37.7122 76.9227 37.5974 76.9826 37.4544L77.4765 37.6889C77.4233 37.8319 77.3368 37.9616 77.2171 38.078C77.1006 38.1911 76.9626 38.2809 76.803 38.3475C76.6433 38.414 76.4704 38.4472 76.2841 38.4472ZM78.3767 38.2626C78.5863 38.3857 78.8257 38.4472 79.0951 38.4472C79.2781 38.4472 79.446 38.419 79.599 38.3624C79.7554 38.3026 79.8884 38.2227 79.9982 38.1229C80.1112 38.0198 80.1944 37.9051 80.2476 37.7787L79.7886 37.5542C79.7221 37.6706 79.6306 37.7654 79.5142 37.8386C79.4011 37.9117 79.2631 37.9483 79.1001 37.9483C78.9405 37.9483 78.7975 37.9101 78.6711 37.8336C78.548 37.7571 78.4516 37.6507 78.3817 37.5143C78.336 37.4205 78.3099 37.3158 78.3035 37.2H80.3125C80.3224 37.1601 80.3291 37.1168 80.3324 37.0703C80.3358 37.0237 80.3374 36.9788 80.3374 36.9356C80.3374 36.7593 80.3075 36.593 80.2476 36.4367C80.1911 36.2803 80.1079 36.1423 79.9982 36.0226C79.8884 35.8995 79.7537 35.8031 79.5941 35.7332C79.4344 35.6634 79.2531 35.6284 79.0502 35.6284C78.7975 35.6284 78.5713 35.69 78.3717 35.813C78.1722 35.9328 78.0125 36.0974 77.8928 36.3069C77.7764 36.5165 77.7182 36.7576 77.7182 37.0304C77.7182 37.2964 77.7764 37.5376 77.8928 37.7538C78.0092 37.9666 78.1705 38.1363 78.3767 38.2626ZM78.3176 36.751C78.3303 36.6727 78.3517 36.6012 78.3817 36.5364C78.4449 36.3967 78.5347 36.2903 78.6511 36.2171C78.7675 36.1406 78.9006 36.1024 79.0502 36.1024C79.1999 36.1024 79.3296 36.1406 79.4394 36.2171C79.5525 36.2903 79.6356 36.3918 79.6888 36.5215C79.7205 36.5922 79.7381 36.6687 79.7416 36.751H78.3176Z" fill="#384052"/>
</svg>
