<svg width="40" height="40" viewBox="0 0 40 40" fill="none" xmlns="http://www.w3.org/2000/svg">
<path d="M19.9997 40L19.9997 30.0291L30.0273 30.0291L30.0273 36.4636C30.0273 37.0005 29.7247 37.488 29.2488 37.737C26.483 39.183 23.3371 40 19.9997 40Z" fill="#14C585"/>
<path d="M9.97232 36.4639L9.97232 30.0281L20 30.0281L20 39.999C16.6631 39.999 13.5166 39.1814 10.7509 37.7366C10.275 37.4877 9.97171 37.0002 9.97171 36.4633L9.97232 36.4639Z" fill="#A1E8CE"/>
<path d="M9.97232 20.0004L9.97232 9.97269L20 9.97269L20 14.6757C20 14.9325 19.7919 15.1406 19.5351 15.1406L17.0341 15.1406C15.9877 15.1406 15.1396 15.9887 15.1396 17.0351L15.1396 19.536C15.1396 19.7929 14.9316 20.001 14.6747 20.001L9.97171 20.001L9.97232 20.0004Z" fill="#A4B8E8"/>
<path d="M9.97171 9.97266L9.97171 3.53566C9.97171 2.99874 10.2743 2.51063 10.7509 2.2623C13.516 0.817484 16.6625 -0.000102705 20 -0.000102997L20 9.97205L9.97232 9.97205L9.97171 9.97266Z" fill="#1C4EC5"/>
<path d="M19.9997 9.97266L19.9997 0.000504417C23.3371 0.000504125 26.483 0.818096 29.2488 2.26352C29.7247 2.51246 30.0273 2.99996 30.0273 3.53688L30.0273 9.97266L19.9997 9.97266Z" fill="#A4B8E8"/>
<path d="M0.000502663 20.0006L9.97266 20.0006L9.97266 30.0283L3.53688 30.0283C2.99996 30.0283 2.51245 29.7257 2.26352 29.2498C0.817481 26.484 0.000502955 23.3381 0.000502663 20.0006Z" fill="#A4B8E8"/>
<path d="M-0.000103951 20.001C-0.000104242 16.6641 0.817482 13.5176 2.2623 10.7518C2.51123 10.2759 2.99874 9.97269 3.53566 9.97269L9.97266 9.97269L9.97266 20.0004L0.000502586 20.0004L-0.000103951 20.001Z" fill="#1C4EC5"/>
<path d="M19.9991 30.0283L19.9991 25.3254C19.9991 25.0685 20.2071 24.8604 20.464 24.8604L22.9637 24.8604C24.0107 24.8604 24.8594 24.0117 24.8594 22.9647L24.8594 20.465C24.8594 20.2081 25.0675 20 25.3244 20L30.0273 20L30.0273 30.0277L19.9997 30.0277L19.9991 30.0283Z" fill="#A1E8CE"/>
<path d="M30.0291 30.0283L30.0291 20.0006L40 20.0006C40 23.3381 39.1824 26.484 37.737 29.2498C37.488 29.7257 37.0005 30.0283 36.4636 30.0283L30.0291 30.0283Z" fill="#14C585"/>
<path d="M30.0285 20.0004L30.0285 9.97269L36.4642 9.97269C37.0012 9.97269 37.4893 10.2753 37.7376 10.7518C39.1824 13.517 40 16.6635 40 20.001L30.0291 20.001L30.0285 20.0004Z" fill="#A1E8CE"/>
<path d="M21.9896 23.2617L18.0102 23.2617C17.308 23.2617 16.7381 22.6918 16.7381 21.9896L16.7381 18.0102C16.7381 17.308 17.308 16.7381 18.0102 16.7381L21.9896 16.7381C22.6918 16.7381 23.2617 17.308 23.2617 18.0102L23.2617 21.9896C23.2617 22.6918 22.6918 23.2617 21.9896 23.2617Z" fill="#FCFCFD"/>
</svg>
